<?xml version="1.0" standalone="no"?>
<!DOCTYPE svg PUBLIC "-//W3C//DTD SVG 20010904//EN"
 "http://www.w3.org/TR/2001/REC-SVG-20010904/DTD/svg10.dtd">
<svg version="1.0" xmlns="http://www.w3.org/2000/svg"
 width="512.000000pt" height="512.000000pt" viewBox="0 0 512.000000 512.000000"
 preserveAspectRatio="xMidYMid meet">

<g transform="translate(0.000000,512.000000) scale(0.100000,-0.100000)"
fill="#000000" stroke="none">
<path d="M530 4670 l0 -79 -82 -3 c-46 -2 -82 -6 -80 -10 1 -5 2 -69 2 -143
l0 -135 80 0 80 0 0 -130 0 -130 -80 0 -80 0 0 -132 0 -133 77 0 78 0 3 -137
3 -138 -81 0 -80 0 0 -135 0 -135 80 0 80 0 0 -140 0 -140 -80 0 -80 0 0 -130
0 -130 80 0 80 0 0 -140 0 -140 -80 0 -80 0 0 -130 0 -130 80 0 80 0 0 -140 0
-140 -80 0 -80 0 0 -135 0 -135 80 0 80 0 0 -135 0 -135 -80 0 -80 0 0 -130 0
-129 78 -3 77 -3 3 -132 3 -133 -81 0 -80 0 0 -135 0 -135 80 0 80 0 0 -85 0
-85 140 0 140 0 0 85 0 85 130 0 130 0 0 -85 0 -85 140 0 140 0 0 85 0 85 135
0 135 0 0 -85 0 -85 135 0 135 0 0 85 0 85 129 0 129 0 7 -40 c4 -21 5 -58 3
-82 l-3 -43 138 -3 137 -3 0 86 0 85 135 0 135 0 0 -85 0 -85 135 0 135 0 0
85 0 85 130 0 129 0 3 -82 3 -83 138 -3 137 -3 0 86 0 86 133 -3 132 -3 3 -82
3 -83 134 0 135 0 0 85 0 85 130 0 130 0 0 -85 0 -85 140 0 140 0 0 85 0 85
80 0 80 0 0 135 0 134 -78 3 -77 3 0 130 0 130 78 3 77 3 0 129 0 130 -80 0
-80 0 0 135 0 135 80 0 80 0 0 135 0 134 -77 3 -78 3 -3 138 -3 137 81 0 80 0
0 130 0 130 -80 0 -81 0 3 138 3 137 78 3 77 3 0 129 0 129 -77 3 -78 3 -3
138 -3 137 81 0 80 0 0 135 0 135 -80 0 -80 0 0 135 0 135 80 0 80 0 0 135 0
135 -80 0 -80 0 0 130 0 130 80 0 80 0 0 145 0 145 -80 0 -80 0 0 80 0 80
-140 0 -140 0 0 -80 0 -80 -130 0 -130 0 0 80 0 81 -137 -3 -138 -3 4 -77 3
-78 -136 0 -136 0 0 80 0 80 -140 0 -140 0 0 -80 0 -80 -130 0 -130 0 0 80 0
80 -135 0 -135 0 0 -80 0 -80 -135 0 -135 0 0 80 0 81 -137 -3 -136 -3 2 -77
2 -78 -135 0 -136 0 0 80 0 80 -135 0 -135 0 0 -80 0 -80 -135 0 -135 0 0 80
0 80 -140 0 -140 0 0 -80 0 -80 -130 0 -130 0 0 80 0 80 -140 0 -140 0 0 -80z
m278 -173 l3 -78 132 3 132 3 3 78 3 78 132 -3 132 -3 3 -77 3 -78 134 0 134
0 3 78 3 77 130 0 130 0 3 -77 3 -78 134 0 135 0 0 80 0 81 131 -3 132 -3 1
-75 1 -75 138 -3 137 -3 0 81 0 80 130 0 129 0 3 -77 3 -78 138 -3 137 -3 0
81 0 81 133 -3 132 -3 3 -77 3 -78 134 0 135 0 0 80 0 81 133 -3 132 -3 3 -77
3 -78 129 0 129 0 3 78 3 77 62 3 62 3 3 -78 3 -78 73 -3 72 -3 0 -59 0 -59
-72 -3 -73 -3 0 -130 0 -130 73 -3 73 -3 -3 -127 -3 -127 -70 0 -70 -1 0 -139
0 -140 73 -3 72 -3 0 -129 0 -129 -72 -3 -73 -3 -3 -137 -3 -138 76 0 76 0 -3
-127 -3 -128 -72 -3 -73 -3 0 -139 0 -139 73 -3 72 -3 0 -125 0 -125 -72 -3
-73 -3 0 -139 0 -140 75 0 75 0 0 -130 0 -129 -72 -3 -73 -3 -3 -137 -3 -137
73 -3 73 -3 3 -127 3 -127 -73 -3 -73 -3 0 -130 0 -130 73 -3 72 -3 0 -59 0
-60 -75 0 -75 0 0 -70 0 -70 -65 0 -65 0 0 70 0 70 -130 0 -130 0 0 -70 0 -70
-135 0 -135 0 0 70 0 70 -135 0 -135 0 0 -70 0 -70 -135 0 -135 0 0 70 0 70
-140 0 -140 0 0 -70 0 -70 -130 0 -130 0 0 70 0 70 -140 0 -140 0 0 -70 0 -70
-130 0 -130 0 0 70 0 70 -135 0 -135 0 0 -70 0 -70 -135 0 -135 0 0 70 0 70
-135 0 -135 0 0 -70 0 -70 -135 0 -135 0 -2 53 c0 28 -1 60 0 70 2 15 -11 17
-133 17 l-134 0 -3 -67 -3 -68 -57 -3 -58 -3 0 71 0 70 -75 0 -75 0 0 60 0 60
75 0 75 0 0 135 0 135 -75 0 -75 0 0 130 0 130 75 0 75 0 0 140 0 140 -75 0
-75 0 0 130 0 130 75 0 75 0 0 140 0 140 -75 0 -75 0 0 130 0 130 75 0 75 0 0
140 0 140 -75 0 -75 0 0 130 0 130 75 0 75 0 0 140 0 140 -75 0 -75 0 0 130 0
130 75 0 76 0 -3 143 -3 142 -72 3 -73 3 0 124 0 125 75 0 75 0 0 135 0 135
-75 0 -75 0 0 60 0 60 75 0 75 0 0 73 c0 41 3 77 7 81 4 4 30 6 58 4 l50 -3 3
-78z"/>
<path d="M892 2568 l3 -1713 1663 -3 1662 -2 0 1715 0 1715 -1665 0 -1665 0 2
-1712z m3178 7 l0 -1565 -1515 0 -1515 0 0 1558 c0 857 3 1562 7 1565 3 4 685
7 1515 7 l1508 0 0 -1565z"/>
</g>
</svg>
